<svg width="41" height="40" viewBox="0 0 41 40" fill="none" xmlns="http://www.w3.org/2000/svg">
<path fill-rule="evenodd" clip-rule="evenodd" d="M20.5 40C31.8218 40 41 31.0457 41 20C41 8.9543 31.8218 0 20.5 0C9.17816 0 0 8.9543 0 20C0 31.0457 9.17816 40 20.5 40ZM12.0896 12.6154C11.2187 12.6154 10.5127 13.3214 10.5127 14.1923C10.5127 15.0632 11.2187 15.7692 12.0896 15.7692H28.9101C29.781 15.7692 30.4871 15.0632 30.4871 14.1923C30.4871 13.3214 29.781 12.6154 28.9101 12.6154H12.0896ZM10.5128 20.5C10.5128 19.6291 11.2188 18.9231 12.0897 18.9231H28.9103C29.7812 18.9231 30.4872 19.6291 30.4872 20.5C30.4872 21.3709 29.7812 22.0769 28.9103 22.0769H12.0897C11.2188 22.0769 10.5128 21.3709 10.5128 20.5ZM12.0897 25.2308C11.2188 25.2308 10.5128 25.9368 10.5128 26.8077C10.5128 27.6786 11.2188 28.3846 12.0897 28.3846H28.9103C29.7812 28.3846 30.4872 27.6786 30.4872 26.8077C30.4872 25.9368 29.7812 25.2308 28.9103 25.2308H12.0897Z" fill="white"/>
</svg>
